<svg xmlns:x="http://ns.adobe.com/Extensibility/1.0/" xmlns:i="http://ns.adobe.com/AdobeIllustrator/10.0/" xmlns:graph="http://ns.adobe.com/Graphs/1.0/" xmlns="http://www.w3.org/2000/svg" xmlns:xlink="http://www.w3.org/1999/xlink" version="1.1" x="0px" y="0px" viewBox="0 0 64 80" enable-background="new 0 0 64 64" xml:space="preserve"><metadata><sfw xmlns="http://ns.adobe.com/SaveForWeb/1.0/"><slices/><sliceSourceBounds y="-8160" x="-8165" width="16389" height="16384" bottomLeftOrigin="true"/><optimizationSettings><targetSettings fileFormat="PNG24Format" targetSettingsID="0"><PNG24Format transparency="true" matteColor="#FFFFFF" noMatteColor="false" interlaced="false" filtered="false"/></targetSettings></optimizationSettings></sfw></metadata><g><g><path d="M46,18H18c-0.55,0-1.075,0.226-1.453,0.625c-0.377,0.399-0.574,0.937-0.544,1.485l2,36C18.062,57.171,18.938,58,20,58h24    c1.062,0,1.938-0.829,1.997-1.889l2-36c0.03-0.549-0.166-1.086-0.544-1.485S46.55,18,46,18z M42.108,54H21.892l-1.778-32h23.771    L42.108,54z"/><path d="M50,10H40V8c0-1.104-0.896-2-2-2H26c-1.104,0-2,0.896-2,2v2H14c-1.104,0-2,0.896-2,2s0.896,2,2,2h12c1.104,0,2-0.896,2-2    v-2h8v2c0,1.104,0.896,2,2,2h12c1.104,0,2-0.896,2-2S51.104,10,50,10z"/><path d="M28,50c1.104,0,2-0.896,2-2V28c0-1.104-0.896-2-2-2s-2,0.896-2,2v20C26,49.104,26.896,50,28,50z"/><path d="M36,50c1.104,0,2-0.896,2-2V28c0-1.104-0.896-2-2-2s-2,0.896-2,2v20C34,49.104,34.896,50,36,50z"/></g></g></svg>
